<svg width="20" height="20" viewBox="0 0 20 20" fill="none" xmlns="http://www.w3.org/2000/svg">
<path fill-rule="evenodd" clip-rule="evenodd" d="M3.28418 1.12305C3.21051 1.16059 3.11383 1.24094 3.06934 1.3016C2.98863 1.4116 2.9884 1.42488 2.97813 6.3602C2.97082 9.85602 2.98023 11.3387 3.01023 11.4114C3.03359 11.4679 3.10531 11.5646 3.16961 11.6262L3.28652 11.7382H9.99957H16.7126L16.8171 11.6405C17.0448 11.4279 17.0314 11.7533 17.0313 6.41789C17.0313 1.81668 17.027 1.49531 16.963 1.36988C16.9254 1.29621 16.8451 1.19953 16.7844 1.15504C16.6755 1.07512 16.6379 1.07402 13.733 1.06367C10.8989 1.05355 10.7885 1.05586 10.7007 1.12699C10.5744 1.22926 10.5739 1.46551 10.6998 1.56746C10.7861 1.63738 10.9132 1.64055 13.6178 1.64055H16.4455V3.80871V5.97691L12.9636 5.96691L9.48172 5.95695L9.42777 5.74211C9.33227 5.36164 9.14941 5.04594 8.85191 4.7477C8.40242 4.29711 7.93004 4.10148 7.29145 4.10148C6.29356 4.10148 5.38246 4.8218 5.1841 5.76762L5.14027 5.97648H4.34758H3.55484V3.80852V1.64055H6.57899C8.24227 1.64055 9.63289 1.62914 9.66926 1.61516C9.84317 1.54844 9.85492 1.1832 9.68613 1.09285C9.64121 1.06883 8.46277 1.05465 6.51641 1.05469C3.64391 1.05473 3.40836 1.05973 3.28418 1.12305ZM7.10953 2.46086C7.04242 2.52797 7.03141 2.59105 7.03141 2.90855C7.03141 3.23844 7.04059 3.28668 7.11691 3.35777C7.22488 3.45836 7.39938 3.46008 7.49797 3.36148C7.65754 3.20191 7.65805 2.58086 7.49871 2.45184C7.38539 2.36008 7.20617 2.36422 7.10953 2.46086ZM5.03922 3.00773C4.99184 3.05512 4.96109 3.13793 4.96109 3.21824C4.96109 3.32898 4.99984 3.38812 5.19777 3.57957C5.32793 3.70547 5.46875 3.82117 5.51066 3.83668C5.61082 3.87375 5.76609 3.81242 5.81809 3.71531C5.91035 3.54289 5.86844 3.43332 5.61215 3.17699C5.33781 2.9027 5.1884 2.85855 5.03922 3.00773ZM9.00004 3.1832C8.74559 3.44145 8.70231 3.54848 8.78773 3.70809C8.84785 3.82043 9.0373 3.88301 9.14699 3.82676C9.27941 3.75883 9.56707 3.47531 9.63527 3.34551C9.74031 3.14559 9.59434 2.92961 9.35418 2.92961C9.27762 2.92961 9.18363 2.99691 9.00004 3.1832ZM6.74488 4.78301C6.30418 4.96422 6.03246 5.21816 5.84238 5.62652C5.66422 6.00926 5.52723 5.97648 7.30484 5.97648C9.09016 5.97648 8.94914 6.01281 8.75512 5.60266C8.47406 5.00859 7.95738 4.68641 7.28895 4.68836C7.04617 4.68906 6.91992 4.71102 6.74488 4.78301ZM1.07438 5.89328C1.00992 5.93332 0.741876 6.18652 0.478673 6.45602C-0.151874 7.10168 -0.152851 7.03891 0.498204 7.70269C1.13426 8.35117 1.24098 8.41109 1.4277 8.22434C1.6125 8.03957 1.56953 7.93285 1.12691 7.47793L0.730235 7.07023L1.12691 6.66254C1.56953 6.20762 1.6125 6.1009 1.4277 5.91613C1.31297 5.80141 1.23094 5.79609 1.07438 5.89328ZM18.5726 5.91613C18.3878 6.1009 18.4308 6.20762 18.8734 6.66254L19.2701 7.07023L18.8734 7.47793C18.4308 7.93285 18.3878 8.03957 18.5726 8.22434C18.7587 8.41047 18.8636 8.3518 19.5021 7.70488C19.9351 7.26617 20.0002 7.18359 20.0002 7.07289C20.0002 6.96238 19.9344 6.87855 19.5021 6.43777C18.8661 5.7893 18.7593 5.72937 18.5726 5.91613ZM3.55484 8.18352V9.80461H4.82695C5.64891 9.80461 6.12645 9.81926 6.17649 9.84606C6.36383 9.94633 6.34621 10.2561 6.14801 10.3464C6.0825 10.3763 5.64746 10.3905 4.80301 10.3905H3.55484V10.7812V11.1718H10.0002H16.4455V9.62801V8.08422L12.9522 8.0948C9.47336 8.10535 9.45852 8.10574 9.34871 8.18738C9.19316 8.30301 9.18043 8.47961 9.31969 8.58914C9.40914 8.65953 9.47762 8.67184 9.78082 8.67203C10.1965 8.67227 10.348 8.7077 10.5903 8.86137C11.111 9.1916 11.0026 9.97234 10.3908 10.2982C10.2657 10.3648 10.1308 10.372 8.81149 10.3826C7.25891 10.3951 7.18918 10.3875 7.11113 10.1991C7.06293 10.0827 7.10383 9.91613 7.195 9.85723C7.2232 9.83902 7.90258 9.81535 8.70477 9.80461L10.1633 9.78508L10.2575 9.67547C10.373 9.54113 10.3768 9.44883 10.2709 9.35293C10.2056 9.29387 10.102 9.27504 9.73375 9.25531C9.10355 9.22156 8.87676 9.10746 8.71012 8.74031C8.51391 8.30805 8.72938 7.80137 9.19938 7.5898C9.34555 7.52398 9.58402 7.51875 12.9005 7.50852L16.4455 7.49754V7.03V6.56242H10.0002H3.55484V8.18352ZM0.902891 13.6091C0.702891 13.72 0.706134 13.6768 0.704649 16.2421C0.703165 18.8516 0.70086 18.8236 0.92254 18.9079C0.98129 18.9302 1.99348 18.9452 3.43801 18.9452H5.85516L5.96477 18.851L6.07438 18.7567L6.085 16.3221C6.09281 14.5386 6.08352 13.8582 6.05024 13.7778C5.95602 13.5504 6.005 13.5545 3.39078 13.556C1.47824 13.5571 0.977462 13.5678 0.902891 13.6091ZM7.47504 13.5929C7.25934 13.6811 7.26578 13.599 7.26578 16.2616V18.7169L7.37996 18.8311L7.49414 18.9452H9.93555H12.377L12.4971 18.8441L12.6173 18.743V16.2682V13.7934L12.5231 13.6838L12.4288 13.5741L9.99379 13.5664C8.65453 13.5621 7.52109 13.5741 7.47504 13.5929ZM14.0902 13.617C14.0301 13.6495 13.9642 13.7203 13.9437 13.7742C13.9215 13.8325 13.9064 14.8522 13.9064 16.2945V18.7169L14.0206 18.8311L14.1348 18.9452H16.5571C18.005 18.9452 19.019 18.9302 19.0778 18.9079C19.2991 18.8237 19.297 18.8479 19.297 16.2772C19.297 14.6512 19.2836 13.8792 19.2537 13.7936C19.1684 13.5488 19.2319 13.5545 16.5939 13.5562C14.5303 13.5575 14.1843 13.5659 14.0902 13.617ZM1.28922 15.2201V16.2997L1.48008 16.1212C1.68156 15.9327 1.86555 15.8679 2.06027 15.9168C2.12379 15.9327 2.3682 16.142 2.65742 16.4282L3.14703 16.9127L3.7118 16.3469C4.5102 15.547 4.59914 15.531 5.16488 16.0846L5.50797 16.4203V15.2804V14.1405H3.39859H1.28922V15.2201ZM7.85172 15.2201V16.2997L8.04367 16.1202C8.25809 15.9196 8.3702 15.8773 8.58441 15.9165C8.70496 15.9385 8.81594 16.0295 9.21641 16.4343L9.70219 16.9255L10.2516 16.3547C10.5537 16.0408 10.8504 15.7657 10.9109 15.7435C11.1868 15.642 11.4284 15.7566 11.7922 16.1613L12.0299 16.4257L12.0307 15.2831L12.0314 14.1405H9.94156H7.85172V15.2201ZM14.4923 15.2201V16.2997L14.6843 16.1202C14.8989 15.9193 15.0112 15.8772 15.225 15.917C15.344 15.9392 15.4621 16.0342 15.8593 16.4277L16.3475 16.9112L16.9336 16.3297C17.2908 15.9753 17.5617 15.7377 17.6274 15.7213C17.8603 15.6632 17.9996 15.7315 18.3635 16.0822L18.7111 16.4173V15.2789V14.1405H16.6017H14.4923V15.2201ZM4.07043 16.81C3.80832 17.0752 3.59391 17.3089 3.59391 17.3295C3.59391 17.35 3.82981 17.5901 4.11816 17.863L4.64238 18.3593H5.0752H5.50797V17.8032V17.2472L5.04961 16.7876C4.7975 16.5348 4.58125 16.328 4.56906 16.328C4.55691 16.328 4.3325 16.545 4.07043 16.81ZM10.5949 16.8346L10.1154 17.3319L10.6445 17.8456L11.1736 18.3593H11.6025H12.0314V17.8032V17.2472L11.573 16.7876C11.3209 16.5348 11.1056 16.3301 11.0945 16.3327C11.0834 16.3352 10.8586 16.5611 10.5949 16.8346ZM17.2528 16.8293L16.7527 17.3305L17.2924 17.8437L17.8322 18.3568L18.2716 18.358L18.7111 18.3593L18.7105 17.8222L18.71 17.2851L18.2579 16.8066C18.0093 16.5434 17.794 16.328 17.7794 16.328C17.7648 16.328 17.5279 16.5536 17.2528 16.8293ZM1.59047 16.8525L1.28922 17.1817V17.7705V18.3593H2.53133H3.77344L2.85254 17.4413C2.34606 16.9364 1.92266 16.5234 1.91168 16.5234C1.9007 16.5234 1.75617 16.6715 1.59047 16.8525ZM8.15356 16.827L7.85172 17.1305V17.7449V18.3593H9.08395H10.3162L9.39098 17.4413C8.88211 16.9364 8.46344 16.5234 8.46055 16.5234C8.4577 16.5234 8.31953 16.66 8.15356 16.827ZM14.7942 16.827L14.4923 17.1305V17.7449V18.3593H15.7306H16.9688L16.0529 17.4415C15.5491 16.9367 15.1277 16.5236 15.1164 16.5235C15.1052 16.5234 14.9602 16.66 14.7942 16.827Z" fill="white"/>
</svg>
