<svg width="20" height="20" viewBox="0 0 20 20" fill="none" xmlns="http://www.w3.org/2000/svg">
<g clip-path="url(#clip0_14355_252132)">
<path fill-rule="evenodd" clip-rule="evenodd" d="M0.895615 0.586148C0.642256 0.629429 0.421552 0.752672 0.260537 0.940797C-0.0190726 1.26744 0.000302395 0.742945 0.000302395 7.98837C0.000302395 15.2417 -0.0196195 14.7086 0.263935 15.0399C0.342138 15.1313 0.49499 15.2474 0.603584 15.298L0.801084 15.3899L3.99503 15.3903L7.18901 15.3907L7.17862 16.5087L7.16827 17.6266L6.60979 17.891C6.30265 18.0364 6.01698 18.1864 5.97503 18.2244C5.90698 18.286 5.89874 18.347 5.89874 18.7892C5.89874 19.2435 5.90561 19.2911 5.98097 19.3593C6.06069 19.4314 6.18358 19.4337 10.0078 19.4337H13.9525L14.0272 19.3415C14.0916 19.2619 14.1019 19.1837 14.1019 18.7713C14.1019 18.3619 14.0919 18.2844 14.032 18.2302C13.9936 18.1954 13.7035 18.0421 13.3875 17.8894L12.8128 17.6119V16.5013V15.3907H16.0083H19.2037L19.4066 15.2896C19.6392 15.1737 19.8603 14.9356 19.9257 14.7308C19.9505 14.6533 19.9861 14.5732 20.005 14.5528C20.0494 14.5048 20.0505 1.3558 20.0061 1.38322C19.9878 1.39455 19.9527 1.33658 19.9281 1.25447C19.8635 1.03873 19.6092 0.769273 19.367 0.65982L19.1605 0.5665L10.1175 0.561031C5.14386 0.558023 0.994013 0.569351 0.895615 0.586148ZM0.821396 1.12322C0.746631 1.16076 0.645537 1.25123 0.596787 1.32423L0.508115 1.45697V6.959V12.461H10.0003H19.4925V6.959V1.45697L19.4038 1.32423C19.3551 1.25123 19.254 1.16076 19.1792 1.12322C19.051 1.05877 18.5317 1.0549 10.0003 1.0549C1.4689 1.0549 0.949638 1.05877 0.821396 1.12322ZM0.019404 7.98837C0.019404 11.6192 0.0239743 13.0988 0.0295993 11.2763C0.0352243 9.4538 0.0352243 6.4831 0.0295993 4.67474C0.0239743 2.86638 0.019404 4.35752 0.019404 7.98837ZM2.60128 2.1058C2.50202 2.21548 2.53245 2.42642 2.65655 2.48884C2.79987 2.56099 17.2007 2.56099 17.3441 2.48884C17.4682 2.42642 17.4986 2.21548 17.3993 2.1058C17.3335 2.03306 17.1624 2.03134 10.0003 2.03134C2.83819 2.03134 2.6671 2.03306 2.60128 2.1058ZM12.1353 3.56505C12.0575 3.62193 9.76593 9.6715 9.76593 9.81998C9.76593 10.0181 10.0339 10.1189 10.1667 9.9708C10.2481 9.88017 12.5003 3.86962 12.5003 3.74318C12.5003 3.55873 12.2866 3.45443 12.1353 3.56505ZM2.86077 4.7747C2.81198 4.79822 2.7628 4.85435 2.75147 4.89939C2.74019 4.94447 2.73616 5.61396 2.74257 6.3872L2.75421 7.79306L2.86241 8.01345C3.06815 8.43236 3.51265 8.73209 3.99061 8.77416C4.5696 8.82509 5.15901 8.44892 5.37933 7.88779C5.43819 7.73787 5.44894 7.53244 5.46038 6.33849L5.47362 4.96205L5.37546 4.86388C5.25616 4.74459 5.19804 4.74138 5.06417 4.84669L4.96124 4.92763L4.96101 6.26271C4.96089 7.10748 4.94511 7.65513 4.91808 7.754C4.85476 7.98541 4.55866 8.25767 4.30386 8.3188C4.19401 8.34517 4.03737 8.35545 3.95577 8.34166C3.61921 8.28478 3.31726 8.00236 3.24085 7.67298C3.22128 7.58865 3.2046 6.93076 3.20378 6.21103C3.20292 5.4913 3.18933 4.8831 3.17354 4.85947C3.14702 4.81974 2.99007 4.72326 2.96186 4.72931C2.95507 4.73076 2.9096 4.75119 2.86077 4.7747ZM6.52319 4.79736C6.47511 4.8363 6.43585 4.91181 6.43585 4.96533C6.43585 5.01884 6.6219 5.44533 6.84936 5.9131L7.26284 6.76365L6.8264 7.63755C6.43831 8.41462 6.39421 8.52349 6.42827 8.62029C6.47929 8.76544 6.64159 8.82376 6.76487 8.74123C6.81679 8.70642 7.00499 8.39115 7.2039 8.00568L7.55202 7.33099L7.8819 7.9917C8.06331 8.35509 8.23897 8.68318 8.27225 8.7208C8.40862 8.87494 8.67218 8.75685 8.67218 8.54158C8.67218 8.484 8.48554 8.06388 8.25737 7.60802L7.84257 6.77912L8.28276 5.89607C8.75327 4.95224 8.77612 4.86466 8.57561 4.77334C8.37636 4.68255 8.31487 4.75197 7.9246 5.50822L7.5589 6.21693L7.2221 5.52377C6.82421 4.70486 6.74241 4.61986 6.52319 4.79736ZM13.2592 4.76716C13.0816 4.83287 13.0811 4.83759 13.0938 6.33494L13.1058 7.754L13.2101 7.9765C13.3429 8.2599 13.5933 8.51037 13.8891 8.6556C14.0912 8.75478 14.1646 8.76951 14.4534 8.76877C14.7283 8.76806 14.8233 8.75037 15.005 8.66584C15.313 8.52259 15.5253 8.3158 15.6737 8.01443L15.8011 7.75587L15.8127 6.33427C15.8232 5.04044 15.8183 4.90603 15.7578 4.83919C15.6904 4.7647 15.5269 4.74255 15.4422 4.79642C15.3297 4.86795 15.3128 5.07068 15.3128 6.35185C15.3128 7.56185 15.3073 7.67029 15.2383 7.80439C15.0799 8.11228 14.8047 8.28177 14.4651 8.28048C14.088 8.27904 13.7903 8.0897 13.6547 7.76502C13.6039 7.6433 13.5941 7.40283 13.5941 6.27959C13.5941 5.16388 13.5844 4.92564 13.5367 4.8574C13.4687 4.76037 13.367 4.72728 13.2592 4.76716ZM16.8992 4.82556C16.8662 4.85849 16.829 4.94197 16.8164 5.01111C16.8038 5.08025 16.7987 5.92502 16.8051 6.88834L16.8167 8.63986L16.9089 8.71451C17.0272 8.81029 17.1287 8.80916 17.2269 8.71103C17.3028 8.63509 17.305 8.58084 17.305 6.76396C17.305 5.00298 17.3008 4.89127 17.2335 4.83037C17.144 4.74931 16.9778 4.74693 16.8992 4.82556ZM2.65655 11.1051C2.53245 11.1675 2.50202 11.3785 2.60128 11.4881C2.6671 11.5609 2.83819 11.5626 10.0003 11.5626C17.1624 11.5626 17.3335 11.5609 17.3993 11.4881C17.4986 11.3785 17.4682 11.1675 17.3441 11.1051C17.2666 11.0661 15.7442 11.0559 10.0003 11.0559C4.25644 11.0559 2.73397 11.0661 2.65655 11.1051ZM9.94171 13.1332C9.33065 13.3467 9.21706 14.1677 9.74698 14.5402C9.98706 14.709 10.2524 14.7263 10.5282 14.5914C10.8454 14.4362 10.9573 14.2524 10.9573 13.8868C10.9573 13.6494 10.9417 13.584 10.8525 13.4493C10.6649 13.1658 10.2552 13.0236 9.94171 13.1332ZM10.0574 13.4043C9.64804 13.512 9.56999 14.0767 9.93386 14.2985C10.3141 14.5304 10.7809 14.1708 10.6615 13.7382C10.5923 13.4874 10.3178 13.3358 10.0574 13.4043ZM7.69561 16.504V17.6173H10.0003H12.305V16.504V15.3907H10.0003H7.69561V16.504Z" fill="white"/>
</g>
<defs>
<clipPath id="clip0_14355_252132">
<rect width="20" height="20" fill="white"/>
</clipPath>
</defs>
</svg>
