<svg width="20" height="20" viewBox="0 0 20 20" fill="none" xmlns="http://www.w3.org/2000/svg">
<g clip-path="url(#clip0_14355_252137)">
<path fill-rule="evenodd" clip-rule="evenodd" d="M14.8117 0.693359C14.7192 0.772266 13.1255 4.5741 13.1255 4.71602C13.1255 4.93973 13.4528 5.08082 13.6258 4.93164C13.6707 4.89289 14.0299 4.08102 14.4553 3.05664L15.2056 1.25L15.6206 1.24875C16.0553 1.24746 16.1199 1.2268 16.2083 1.06082C16.269 0.946953 16.2367 0.807852 16.1254 0.704219C16.048 0.63207 15.989 0.625 15.4662 0.625C14.9758 0.625 14.8802 0.635 14.8117 0.693359ZM16.9714 0.720898C16.9109 0.781328 16.8755 0.861406 16.8755 0.9375C16.8755 1.01359 16.9109 1.09367 16.9714 1.1541L17.0672 1.25H18.1255H19.1837L19.2796 1.1541C19.34 1.09367 19.3755 1.01359 19.3755 0.9375C19.3755 0.861406 19.34 0.781328 19.2796 0.720898L19.1837 0.625H18.1255H17.0672L16.9714 0.720898ZM10.4247 1.32465L10.3325 1.39934L10.3219 3.86926C10.31 6.62223 10.2958 6.47199 10.5797 6.58918C10.8402 6.69668 11.3405 6.95758 11.5215 7.08035C12.3115 7.61602 12.9675 8.40332 13.3356 9.25781C13.3958 9.39746 13.4884 9.55125 13.5414 9.59961L13.6376 9.6875H16.0981H18.5587L18.6604 9.58578L18.7621 9.48406L18.7377 8.97055C18.6352 6.81688 17.6728 4.77648 16.0942 3.36633C15.5322 2.8643 15.4209 2.81398 15.2206 2.9716C15.1412 3.03406 15.1176 3.08695 15.1176 3.20332C15.1176 3.3448 15.1389 3.37207 15.4626 3.64668C17.0146 4.96352 17.8997 6.69539 18.1056 8.81836L18.1293 9.0625L16.0278 9.06145L13.9262 9.06039L13.8098 8.79988C13.3571 7.7873 12.2131 6.64332 11.2006 6.19066L10.9401 6.07422L10.939 3.97148L10.938 1.86879L11.2016 1.89461C11.7401 1.94734 12.2594 2.04293 12.7087 2.17195C12.9628 2.24496 13.2053 2.30469 13.2475 2.30469C13.3623 2.30469 13.5161 2.13102 13.5161 2.00133C13.5161 1.8275 13.3907 1.7323 12.9945 1.60539C12.3496 1.39879 11.4411 1.25223 10.7958 1.25066C10.5787 1.25016 10.4965 1.26656 10.4247 1.32465ZM16.9714 1.9709C16.9109 2.03133 16.8755 2.11141 16.8755 2.1875C16.8755 2.26359 16.9109 2.34367 16.9714 2.4041L17.0672 2.5H18.1255H19.1837L19.2796 2.4041C19.34 2.34367 19.3755 2.26359 19.3755 2.1875C19.3755 2.11141 19.34 2.03133 19.2796 1.9709L19.1837 1.875H18.1255H17.0672L16.9714 1.9709ZM7.93014 3.16879C6.38619 3.32402 4.77221 3.99793 3.59733 4.97785C3.20569 5.30449 2.53623 6.00148 2.25838 6.37176C1.05487 7.97578 0.473068 10.0299 0.664865 11.9978C0.811349 13.5004 1.36662 14.9397 2.25838 16.1282C2.53604 16.4983 3.20643 17.1963 3.59397 17.5188C5.21213 18.8655 7.43834 19.5455 9.53733 19.3343C10.488 19.2386 11.4945 18.9505 12.3442 18.5308C12.9684 18.2225 13.0864 18.128 13.0864 17.9368C13.0864 17.803 13.0271 17.7354 12.0797 16.7879C11.3371 16.0453 11.049 15.7813 10.9816 15.7813C10.9313 15.7813 10.722 15.8443 10.5164 15.9212C9.86893 16.1638 9.52252 16.2243 8.76998 16.2264C8.03518 16.2286 7.70315 16.1768 7.10983 15.9675C6.3751 15.7084 5.8019 15.3432 5.23112 14.7707C4.4949 14.0321 4.06244 13.2388 3.84424 12.2266C3.74416 11.7623 3.74416 10.7377 3.84424 10.2734C4.06244 9.26117 4.4949 8.46793 5.23112 7.72934C6.13088 6.82672 7.2074 6.33973 8.4742 6.26219C8.83033 6.24043 8.8958 6.22539 8.9735 6.1477L9.06295 6.05824V4.6875V3.31676L8.96705 3.2209C8.88053 3.13434 8.84155 3.12551 8.56666 3.1302C8.3992 3.13305 8.11276 3.15039 7.93014 3.16879ZM7.93014 3.79309C5.72975 4.04047 3.73565 5.23563 2.53334 7.02774C1.69319 8.28 1.24846 9.74047 1.25112 11.2387C1.25627 14.1552 2.91299 16.7627 5.56686 18.0314C7.54092 18.9752 9.96147 18.9827 11.8955 18.051L12.269 17.8711L11.5684 17.1723L10.8678 16.4736L10.483 16.595C9.8176 16.805 9.50174 16.8525 8.76998 16.8527C7.7858 16.8531 7.17502 16.7127 6.30905 16.2871C4.60401 15.4491 3.39592 13.7594 3.16854 11.8945C2.84815 9.26688 4.47764 6.72746 7.01217 5.90445C7.31049 5.80758 7.70682 5.7268 8.311 5.63977L8.43795 5.62145V4.68574V3.75L8.33053 3.75508C8.27147 3.75785 8.09127 3.77496 7.93014 3.79309ZM8.37936 8.77176C8.33639 8.78168 8.20455 8.80934 8.08639 8.83317C7.19479 9.01297 6.04358 9.82527 5.2308 10.8481C4.93166 11.2245 4.93166 11.2774 5.23104 11.6481C6.40307 13.0994 7.86369 13.8821 9.0942 13.7183C9.96549 13.6023 10.7648 13.1668 11.616 12.3445C12.1668 11.8124 12.5005 11.3996 12.5005 11.2502C12.5005 11.043 11.7776 10.2244 11.1669 9.73988C10.6028 9.29235 10.0494 8.99637 9.4958 8.84606C9.27897 8.78715 8.52846 8.73723 8.37936 8.77176ZM8.18405 9.45172C8.03365 9.49156 7.82616 9.56067 7.72291 9.60535C7.18916 9.83629 6.48287 10.3741 5.98264 10.9304L5.69529 11.25L5.98264 11.5696C6.9885 12.6882 8.16197 13.2559 9.12272 13.0886C9.89752 12.9537 10.7684 12.4012 11.5183 11.5689L11.8056 11.25L11.5183 10.9307C10.4252 9.71621 9.21401 9.17895 8.18405 9.45172ZM8.45506 10.0342C8.26405 10.0838 7.93205 10.2794 7.82709 10.4042C7.77397 10.4673 7.68385 10.6087 7.62682 10.7185C7.53873 10.888 7.52303 10.9679 7.52229 11.25C7.52151 11.5541 7.53264 11.6028 7.65416 11.8282C7.80197 12.1023 7.92455 12.2207 8.21893 12.3736C8.38905 12.462 8.46729 12.4773 8.75045 12.4773C9.03362 12.4773 9.11186 12.462 9.28197 12.3736C9.57635 12.2207 9.69893 12.1023 9.84674 11.8282C9.96826 11.6028 9.9794 11.5541 9.97862 11.25C9.97787 10.9679 9.96217 10.888 9.87408 10.7185C9.72186 10.4255 9.60256 10.3013 9.33842 10.1605C9.08604 10.026 8.69944 9.97066 8.45506 10.0342ZM8.49459 10.68C8.10049 10.8516 8.0074 11.3755 8.31615 11.6843C8.75502 12.1232 9.4742 11.7301 9.35873 11.1144C9.28963 10.7462 8.84998 10.5252 8.49459 10.68ZM13.8528 11.027C13.775 11.1047 13.76 11.1701 13.7381 11.5287C13.6673 12.6854 13.2275 13.7416 12.4675 14.58C12.1977 14.8777 12.1557 14.9816 12.2405 15.1423C12.2728 15.2037 12.7102 15.6626 13.2123 16.1621C14.0871 17.0322 14.1317 17.0703 14.276 17.0703C14.4072 17.0703 14.4516 17.0439 14.6196 16.8652C15.8943 15.5098 16.6569 13.835 16.836 11.9978C16.9017 11.3244 16.8912 11.145 16.7796 11.0334L16.6837 10.9375H15.313H13.9422L13.8528 11.027ZM14.3569 11.748C14.302 12.1853 14.2106 12.6409 14.1176 12.9404C13.977 13.3938 13.5977 14.1436 13.3228 14.5117C13.1945 14.6836 13.0595 14.8652 13.0228 14.9152C12.9564 15.0059 12.9581 15.0082 13.6195 15.6696L14.2829 16.3329L14.5256 16.0395C15.2839 15.1227 15.813 14.0418 16.0694 12.8861C16.1532 12.5082 16.2505 11.8295 16.2505 11.6226C16.2505 11.5702 16.1312 11.5625 15.3153 11.5625H14.3803L14.3569 11.748Z" fill="white"/>
</g>
<defs>
<clipPath id="clip0_14355_252137">
<rect width="20" height="20" fill="white"/>
</clipPath>
</defs>
</svg>
