<svg width="20" height="20" viewBox="0 0 20 20" fill="none" xmlns="http://www.w3.org/2000/svg">
<g clip-path="url(#clip0_14355_252142)">
<path fill-rule="evenodd" clip-rule="evenodd" d="M9.23705 0.0622641C8.88568 0.18703 8.59397 0.578709 8.59397 0.925741V1.09387H5.33049H2.06697L1.97111 1.18976C1.8367 1.32414 1.84369 1.49805 1.9894 1.64375L2.10357 1.75793L4.4015 1.75863L6.69943 1.75933L6.22639 2.00765C4.63061 2.84531 3.42311 4.08082 2.63369 5.68371C2.35408 6.25144 2.07209 7.06672 1.96865 7.60625L1.90014 7.96355L1.66307 8.04859C1.48068 8.11402 1.37104 8.18937 1.1876 8.37543C0.899708 8.66742 0.802091 8.90672 0.803731 9.31652C0.805684 9.80476 1.09791 10.2632 1.55139 10.4893C1.74607 10.5864 1.82381 10.6024 2.10959 10.6039C2.38897 10.6053 2.47643 10.5893 2.66115 10.5027C3.09275 10.3003 3.36182 9.94797 3.43506 9.48926C3.47807 9.21992 3.41717 9.05687 3.24721 8.98648C3.14865 8.94566 3.1024 8.94539 3.00654 8.98512C2.86459 9.04391 2.8233 9.11332 2.77326 9.37722C2.72479 9.63277 2.60787 9.79515 2.40643 9.88664C2.20412 9.97848 2.05432 9.97859 1.8526 9.88699C1.55506 9.75183 1.40397 9.44016 1.48686 9.13238C1.54725 8.90812 1.77381 8.6859 1.97479 8.65387C2.05967 8.64035 2.18639 8.62047 2.25639 8.60972C2.42943 8.5832 2.48842 8.47711 2.55963 8.06426C2.98045 5.62465 4.49932 3.59082 6.69943 2.52082C7.41471 2.17297 8.06342 1.97082 8.94994 1.81953C9.18479 1.77945 9.23682 1.68515 9.25006 1.27535C9.26873 0.697616 9.31002 0.664178 10.0046 0.664178C10.7227 0.664178 10.7395 0.68121 10.7412 1.41086C10.7423 1.89086 10.7345 1.95273 10.6614 2.04562C10.6169 2.10223 10.5453 2.14855 10.5022 2.14855C10.378 2.14855 10.1955 2.35703 10.1955 2.4989C10.1955 2.67277 10.346 2.81262 10.533 2.81262C10.9587 2.81262 11.4065 2.33476 11.4065 1.88035V1.75793H14.6517H17.8969L18.011 1.64375C18.1567 1.49805 18.1637 1.32414 18.0293 1.18976L17.9335 1.09387H14.6699H11.4065V0.925741C11.4065 0.572616 11.1124 0.189256 10.741 0.0582407C10.517 -0.0208218 9.46307 -0.0179702 9.23705 0.0622641ZM13.6749 2.25148C13.4879 2.48918 13.5848 2.64914 14.1185 2.98387C15.2647 3.70277 16.3177 4.93933 16.8912 6.24004C17.1596 6.84848 17.323 7.39293 17.4383 8.06203C17.5103 8.47957 17.5696 8.58285 17.7538 8.61156C17.8292 8.62332 17.9559 8.64316 18.0354 8.6557C18.2262 8.68574 18.4547 8.91351 18.5136 9.13238C18.5965 9.44016 18.4454 9.75183 18.1478 9.88699C17.9461 9.97859 17.7963 9.97848 17.594 9.88664C17.3926 9.79515 17.2756 9.63277 17.2272 9.37722C17.1771 9.11332 17.1358 9.04391 16.9939 8.98512C16.898 8.94539 16.8518 8.94566 16.7532 8.98648C16.5833 9.05687 16.5224 9.21992 16.5654 9.48926C16.6386 9.94797 16.9077 10.3003 17.3393 10.5027C17.524 10.5893 17.6115 10.6053 17.8908 10.6039C18.1766 10.6024 18.2544 10.5864 18.449 10.4893C18.9025 10.2632 19.1947 9.80476 19.1967 9.31652C19.1983 8.90672 19.1007 8.66742 18.8128 8.37543C18.6294 8.18937 18.5197 8.11402 18.3374 8.04859L18.1003 7.96355L18.0318 7.60625C17.8785 6.80687 17.4478 5.72945 16.9798 4.97469C16.4653 4.14508 15.7205 3.32812 14.954 2.75273C14.1399 2.14156 13.8506 2.0282 13.6749 2.25148ZM8.55529 4.54371C8.48033 4.56758 8.3485 4.65926 8.26233 4.7475C8.1344 4.87848 5.61658 8.90121 5.36592 9.37512C5.30951 9.48172 5.29358 9.59785 5.29338 9.90246L5.29318 10.2931L6.01045 11.9115C6.63412 13.3188 6.71963 13.5354 6.66584 13.5717C6.63182 13.5946 6.53158 13.6573 6.44303 13.7111C6.25443 13.8255 6.04072 14.101 5.95397 14.3416C5.87244 14.5677 5.83963 15.1954 5.8942 15.4859C6.0074 16.0886 6.42436 16.5084 7.0001 16.5994C7.10416 16.6159 7.20053 16.6405 7.2142 16.6542C7.22787 16.6679 7.15494 17.3664 7.05213 18.2064L6.86514 19.7336L6.94252 19.8376C7.09983 20.0489 7.4058 20.0343 7.49697 19.8112C7.52037 19.754 7.63592 18.928 7.75377 17.9758C8.01807 15.8402 8.05014 16.0025 7.35615 15.9634C6.81865 15.9331 6.58889 15.7309 6.53795 15.2433C6.48565 14.7428 6.59275 14.4178 6.87217 14.2296L7.00397 14.1407H10.0002H12.9965L13.1283 14.2296C13.4077 14.4178 13.5148 14.7428 13.4625 15.2433C13.4313 15.5421 13.3149 15.7477 13.1108 15.8646L12.9494 15.9571L11.1135 15.967C10.1037 15.9724 9.23686 15.9862 9.18709 15.9977C9.13104 16.0106 9.07514 16.07 9.0401 16.1539C8.92416 16.4312 9.12029 16.6407 9.49592 16.6407H9.644L9.65608 17.6923C9.66818 18.7439 9.66818 18.744 9.76287 18.8447C9.89334 18.9835 10.1071 18.9835 10.2376 18.8447C10.3322 18.744 10.3322 18.7438 10.3443 17.695L10.3564 16.6461L11.7115 16.632C13.1995 16.6164 13.2272 16.6125 13.5725 16.3645C13.9231 16.1127 14.0935 15.7664 14.1287 15.2345C14.1821 14.4254 13.9394 13.896 13.3791 13.5996L13.1838 13.4962L10.3081 13.4855L7.43252 13.4747L6.6851 11.7832C5.83248 9.85347 5.83686 9.86973 6.06592 9.49C6.86525 8.16488 8.73885 5.18234 8.7824 5.16562C8.81354 5.15371 8.86733 5.16183 8.90201 5.18367C8.9583 5.21918 8.96717 5.44043 8.98459 7.2441L9.00412 9.26476L9.11373 9.35898C9.25693 9.48215 9.42861 9.48152 9.55276 9.35734L9.64865 9.26148V7.18785C9.64865 5.22402 9.64471 5.10652 9.57412 4.96926C9.37779 4.58758 8.96236 4.41406 8.55529 4.54371ZM10.8803 4.55246C10.691 4.62433 10.5256 4.77617 10.4263 4.96926C10.3557 5.10656 10.3518 5.2243 10.3518 7.20437V9.29453L10.5569 9.4468C10.8197 9.64199 10.8781 9.70926 10.9756 9.92965C11.2119 10.4638 11.0228 11.0627 10.5377 11.3171C10.3603 11.4101 10.2869 11.4248 10.0002 11.4248C9.71686 11.4248 9.63955 11.4097 9.47287 11.3218C9.36545 11.2652 9.23885 11.1773 9.19158 11.1266C9.07467 11.0011 8.95791 10.724 8.92369 10.4909C8.86947 10.1211 8.55533 9.98578 8.34143 10.24C8.24701 10.3522 8.24049 10.3815 8.26541 10.5818C8.35955 11.3387 8.81119 11.8566 9.551 12.0559C10.1442 12.2158 10.911 11.9968 11.3095 11.5536C11.7723 11.0388 11.8794 10.2606 11.5756 9.61847C11.5207 9.50254 11.3724 9.29703 11.2458 9.16183L11.0158 8.91594V7.08C11.0158 5.12691 11.0157 5.12805 11.1983 5.1632C11.2551 5.17414 12.9579 7.86519 13.8875 9.41293C14.1587 9.86445 14.1547 9.88867 13.6131 11.1093C13.3408 11.7229 13.1643 12.1707 13.1643 12.2476C13.1643 12.441 13.2796 12.557 13.4721 12.557C13.5649 12.557 13.6576 12.5314 13.693 12.4959C13.7546 12.4344 14.5952 10.5733 14.6867 10.2961C14.7615 10.0694 14.722 9.55211 14.6138 9.34246C14.4796 9.08234 11.9235 4.95953 11.8022 4.80754C11.5908 4.54277 11.1946 4.43312 10.8803 4.55246ZM12.4363 17.7802C12.2509 17.87 12.2456 17.9413 12.357 18.8639C12.4138 19.3355 12.4804 19.7653 12.5049 19.8191C12.6035 20.0354 12.9029 20.0457 13.0575 19.838C13.1345 19.7347 13.1344 19.7334 13.028 18.8615C12.9694 18.3813 12.9056 17.9586 12.8863 17.922C12.7997 17.7586 12.6067 17.6977 12.4363 17.7802Z" fill="white"/>
</g>
<defs>
<clipPath id="clip0_14355_252142">
<rect width="20" height="20" fill="white"/>
</clipPath>
</defs>
</svg>
