<svg width="103" height="134" viewBox="0 0 103 134" fill="none" xmlns="http://www.w3.org/2000/svg">
<g opacity="0.1">
<path d="M109.865 6.81478C96.7236 -0.866194 81.0738 -1.90538 66.6954 2.9467C61.7903 4.60206 57.11 6.93424 52.8639 9.89893C48.4654 12.97 45.1655 17.1609 41.2572 20.7839C37.3041 24.4483 33.2113 28.0142 28.5654 30.7836C22.0141 34.6891 14.3847 37.0238 8.91967 42.3439C2.90604 48.1981 0.431892 56.8845 0.0546334 65.2688C-0.26344 72.3372 0.777925 79.5767 3.95358 85.8993C7.27447 92.5106 12.7732 97.8271 18.8784 102.006C26.7913 107.423 35.8757 111.119 45.3224 112.766C64.084 116.038 83.6369 111.121 100.3 101.898C110.177 96.4324 119.321 89.3734 126.08 80.3319C132.838 71.2904 137.092 60.152 136.784 48.8677C136.309 31.4931 124.871 15.5861 109.865 6.81478Z" fill="#ECDEFF"/>
<path d="M40.0962 17.2217C41.3231 15.5014 42.4622 13.6209 42.7149 11.5229C42.9672 9.42458 42.115 7.06481 40.2222 6.12475C38.3374 5.18832 35.9525 5.92323 34.4297 7.37598C32.9065 8.82874 32.0805 10.8548 31.4265 12.8551C30.1698 16.6992 29.2421 20.941 26.2408 23.6522C25.5472 24.2789 24.7517 24.8116 24.2031 25.5683C22.9068 27.3562 24.2205 29.225 26.2571 29.4375C28.0345 29.623 29.5475 27.9411 30.8154 26.9281C34.3346 24.1163 37.4775 20.8938 40.0962 17.2217Z" fill="#ECDEFF"/>
<path d="M101.865 17.5777C102.394 17.5814 102.94 17.5821 103.427 17.3751C104.272 17.0156 104.757 16.1014 104.938 15.2009C105.134 14.2249 105.037 13.1592 104.501 12.3201C103.966 11.4809 102.946 10.9236 101.965 11.0939C100.984 11.2642 100.173 12.2627 100.355 13.2416C99.9798 12.5005 98.7209 12.4856 98.3288 13.2173C98.2086 12.0441 96.6622 11.3829 95.6168 11.9279C94.5711 12.4733 94.159 13.864 94.5021 14.9921C93.7186 14.4224 92.4096 14.9801 92.2778 15.9398C91.9521 15.6413 91.6819 15.2615 91.2785 15.0818C90.8751 14.9021 90.2742 15.0622 90.2186 15.5001C89.7873 15.1025 89.133 14.9645 88.5778 15.1548C88.0226 15.3447 87.5902 15.8548 87.4932 16.4336C87.262 17.813 88.32 17.6119 89.1548 17.4953C90.5059 17.3068 92.0247 17.5069 93.3899 17.5167C96.2145 17.5374 99.0398 17.5574 101.865 17.5777Z" fill="white"/>
<path d="M14.4037 36.9452C14.9328 36.9488 15.4792 36.9495 15.9658 36.7425C16.8114 36.3831 17.2958 35.4688 17.477 34.5683C17.6734 33.5923 17.5761 32.5266 17.0405 31.6875C16.505 30.8484 15.4847 30.291 14.5039 30.4613C13.5232 30.6316 12.712 31.6301 12.8936 32.609C12.5189 31.868 11.26 31.8531 10.8679 32.5847C10.7477 31.4115 9.20125 30.7503 8.1559 31.2954C7.11017 31.8407 6.69806 33.2314 7.04118 34.3595C6.25762 33.7898 4.94865 34.3476 4.81685 35.3072C4.49115 35.0088 4.221 34.6289 3.8176 34.4492C3.4142 34.2695 2.81327 34.4296 2.75772 34.8675C2.32636 34.4699 1.67206 34.3319 1.11688 34.5222C0.561703 34.7121 0.129253 35.2223 0.0323064 35.801C-0.198987 37.1804 0.859082 36.9793 1.69348 36.8627C3.04457 36.6743 4.5634 36.8743 5.92865 36.8842C8.75355 36.9048 11.5785 36.9248 14.4037 36.9452Z" fill="#ECDEFF"/>
<path d="M14.8337 54.2515C14.235 54.2558 13.617 54.2562 13.0662 54.022C12.1094 53.6153 11.5611 52.5809 11.356 51.5616C11.1338 50.4575 11.2438 49.2512 11.8498 48.3017C12.4558 47.3522 13.6105 46.7215 14.7205 46.914C15.8305 47.1064 16.748 48.2368 16.5425 49.3446C16.9666 48.5058 18.391 48.4891 18.8347 49.3173C18.9709 47.9898 20.7207 47.2415 21.9036 47.8584C23.087 48.4753 23.5532 50.0493 23.165 51.326C24.0517 50.6815 25.5328 51.3126 25.682 52.3986C26.0502 52.0609 26.3563 51.6314 26.8127 51.4277C27.2691 51.224 27.9492 51.4055 28.012 51.9011C28.5 51.4509 29.2404 51.2951 29.8685 51.5101C30.4967 51.725 30.9862 52.302 31.0958 52.957C31.3572 54.518 30.1601 54.2903 29.2161 54.1585C27.6874 53.945 25.9685 54.1716 24.4239 54.1828C21.2272 54.2057 18.0305 54.2286 14.8337 54.2515Z" fill="white"/>
</g>
<path d="M49.4575 85.1398C37.0497 85.1398 30.9377 73.8805 30.6839 73.4012C30.1073 72.3134 30.5216 70.9641 31.6091 70.3878C32.6962 69.812 34.0422 70.2241 34.6202 71.3087C34.8345 71.707 39.777 80.682 49.4575 80.682C50.6884 80.682 51.6866 81.6798 51.6866 82.9111C51.6866 84.1416 50.6884 85.1398 49.4575 85.1398Z" fill="#DDA38C"/>
<path d="M57.4492 114.536C57.4492 114.536 57.9445 119.233 66.945 119.233C75.9451 119.233 77.1197 114.536 77.1197 114.536H57.4492Z" stroke="#244E80" stroke-width="0.343641" stroke-miterlimit="10"/>
<path d="M75.6778 116.15H58.2139C56.2347 116.15 54.6152 114.531 54.6152 112.552V103.896C54.6152 101.916 56.2347 100.297 58.2139 100.297H75.6778C77.6571 100.297 79.2765 101.916 79.2765 103.896V112.552C79.2765 114.531 77.6571 116.15 75.6778 116.15Z" fill="white" stroke="#244E80" stroke-width="0.343641" stroke-miterlimit="10"/>
<path d="M78.5049 101.681L54.6152 105.617V106.854L79.1102 102.819C78.978 102.402 78.77 102.018 78.5049 101.681Z" fill="#DEEEFC"/>
<path d="M79.2765 104.229L54.6152 108.292V109.529L79.2765 105.466V104.229Z" fill="#DEEEFC"/>
<path d="M54.6152 112.202L79.2765 108.139V106.902L54.6152 110.965V112.202Z" fill="#DEEEFC"/>
<path d="M55.3761 114.752L79.2777 110.814V109.577L54.7773 113.614C54.907 114.031 55.1136 114.414 55.3761 114.752Z" fill="#DEEEFC"/>
<path d="M58.2126 116.151H63.1094L79.1409 113.51C79.2258 113.204 79.2749 112.884 79.2749 112.552V112.251L56.9727 115.925C57.3604 116.069 57.7769 116.151 58.2126 116.151Z" fill="#DEEEFC"/>
<path d="M78.5049 101.681L54.6152 105.617V106.854L79.1102 102.819C78.978 102.402 78.77 102.018 78.5049 101.681Z" stroke="#244E80" stroke-width="0.343641" stroke-miterlimit="10"/>
<path d="M79.2765 104.229L54.6152 108.292V109.529L79.2765 105.466V104.229Z" stroke="#244E80" stroke-width="0.343641" stroke-miterlimit="10"/>
<path d="M54.6152 112.202L79.2765 108.139V106.902L54.6152 110.965V112.202Z" stroke="#244E80" stroke-width="0.343641" stroke-miterlimit="10"/>
<path d="M55.3761 114.752L79.2777 110.814V109.577L54.7773 113.614C54.907 114.031 55.1136 114.414 55.3761 114.752Z" stroke="#244E80" stroke-width="0.343641" stroke-miterlimit="10"/>
<path d="M58.2126 116.151H63.1094L79.1409 113.51C79.2258 113.204 79.2749 112.884 79.2749 112.552V112.251L56.9727 115.925C57.3604 116.069 57.7769 116.151 58.2126 116.151Z" stroke="#244E80" stroke-width="0.343641" stroke-miterlimit="10"/>
<path d="M75.6778 116.15H58.2139C56.2347 116.15 54.6152 114.531 54.6152 112.552V103.896C54.6152 101.916 56.2347 100.297 58.2139 100.297H75.6778C77.6571 100.297 79.2765 101.916 79.2765 103.896V112.552C79.2765 114.531 77.6571 116.15 75.6778 116.15Z" stroke="#244E80" stroke-width="0.343641" stroke-miterlimit="10"/>
<path d="M98.749 52.2311C98.0461 42.312 91.9217 22.9636 68.0872 21.8016V21.7461C67.7023 21.7461 67.3225 21.7512 66.946 21.7603C66.5698 21.7512 66.1897 21.7461 65.8048 21.7461V21.8016C41.9703 22.9636 35.8459 42.3116 35.143 52.2311C34.4182 62.4599 39.734 70.4335 44.1638 78.4072C48.5936 86.3808 50.2043 97.0526 50.8891 100.919C51.5739 104.784 55.0774 104.664 55.0774 104.664H65.8051H66.9464L68.0876 104.664L78.8153 104.664C78.8153 104.664 82.3188 104.785 83.0033 100.919C83.6877 97.0526 85.2988 86.3808 89.7286 78.4072C94.1584 70.4335 99.4741 62.4599 98.749 52.2311Z" fill="#FBB040"/>
<path d="M72.914 24.5138C72.149 24.939 71.5862 25.5817 71.7488 26.3957C71.8407 26.8561 72.129 27.253 72.4478 27.5976C73.5469 28.786 75.0581 29.5148 76.5977 30.0155C77.1779 30.2043 77.7803 30.3658 78.3895 30.3335C78.9988 30.3012 79.623 30.0467 79.973 29.5467C80.3644 28.9879 80.3466 28.2348 80.1742 27.5747C79.9102 26.5642 79.2316 25.9633 78.3968 25.3823C77.4549 24.7269 76.4571 24.0505 75.3152 23.9397C74.6671 23.8769 73.6871 24.0843 72.914 24.5138Z" fill="#FCBC68"/>
<path d="M52.047 81.1702C44.8671 69.2958 44.2171 59.4773 44.2171 59.4773C42.6725 39.9597 51.3923 28.6299 57.9441 22.967C40.576 27.4898 35.7613 43.5064 35.143 52.2309C34.4182 62.4598 39.734 70.4334 44.1638 78.407C48.5936 86.3806 50.2043 97.0525 50.8891 100.918C51.5739 104.784 55.0774 104.664 55.0774 104.664H55.1362C55.5066 95.2863 54.954 85.9776 52.047 81.1702Z" fill="#FCBC68"/>
<path d="M47.8684 69.3499L40.5654 71.9896C41.272 73.2931 42.0026 74.5814 42.7302 75.8631C46.4215 73.0291 47.8684 69.3499 47.8684 69.3499Z" fill="#E29A3B"/>
<path d="M118.244 44.6467H71.8115V91.079H118.244V44.6467Z" fill="white"/>
<path d="M98.7483 52.2304C98.5944 50.058 98.1804 47.4335 97.3772 44.6467H71.8115V91.079H84.9923C86.0333 86.9618 87.5347 82.3537 89.7279 78.4061C94.1577 70.4328 99.4734 62.4592 98.7483 52.2304Z" fill="#DEEEFC"/>
<path d="M97.3792 44.6467C97.3792 44.6467 102.617 56.8806 93.1513 72.3137C93.1513 72.3137 89.0337 79.7187 86.6758 85.399" stroke="#244E80" stroke-width="0.343641" stroke-miterlimit="10" stroke-linejoin="round"/>
<path d="M100.634 55.209L88.96 83.3611" stroke="#244E80" stroke-width="0.343641" stroke-miterlimit="10" stroke-linecap="round" stroke-linejoin="round"/>
<path d="M101.63 54.7975C101.469 55.186 101.024 55.3704 100.635 55.2092C100.247 55.048 100.062 54.6025 100.223 54.214C100.385 53.8255 100.83 53.641 101.219 53.8022C101.607 53.9634 101.792 54.4093 101.63 54.7975Z" fill="white" stroke="#244E80" stroke-width="0.343641" stroke-miterlimit="10" stroke-linecap="round" stroke-linejoin="round"/>
<path d="M89.3726 84.3558C89.2113 84.7443 88.7658 84.9288 88.3773 84.7676C87.9888 84.6064 87.8043 84.1608 87.9656 83.7723C88.1268 83.3838 88.5723 83.1994 88.9608 83.3606C89.3493 83.5218 89.5338 83.9673 89.3726 84.3558Z" fill="white" stroke="#244E80" stroke-width="0.343641" stroke-miterlimit="10" stroke-linecap="round" stroke-linejoin="round"/>
<path d="M96.0189 68.8814L94.3887 68.0352L93.5424 69.6654L95.1727 70.5117L96.0189 68.8814Z" fill="white" stroke="#244E80" stroke-width="0.343641" stroke-miterlimit="10" stroke-linejoin="round"/>
<path d="M96.5628 69.5371C96.3954 69.4746 96.2643 69.6888 96.3968 69.8094L99.2904 72.4415C99.408 72.5486 99.4167 72.7309 99.3096 72.8489C99.2025 72.9665 99.0202 72.9752 98.9022 72.8681L96.0091 70.2364C95.8769 70.1162 95.6757 70.2665 95.7538 70.4274L97.818 74.6767C97.8391 74.7199 97.8783 74.7519 97.9248 74.7631L100.67 75.4472C100.728 75.4617 100.789 75.4432 100.829 75.3989L101.373 74.8009L101.448 74.7188L101.992 74.1208C102.032 74.0765 102.045 74.0141 102.025 73.9574L101.085 71.2894C101.069 71.244 101.034 71.208 100.989 71.1913L96.5628 69.5371Z" fill="#244E80"/>
<path d="M102.493 74.2221L100.967 75.8999L101.741 76.6043L103.267 74.9265L102.493 74.2221Z" fill="#244E80"/>
<path d="M116.72 91.0791H72.8301" stroke="#244E80" stroke-width="0.343641" stroke-miterlimit="10" stroke-dasharray="0.95 0.95"/>
<path d="M72.3264 91.0791H71.8115V90.5642" stroke="#244E80" stroke-width="0.343641" stroke-miterlimit="10"/>
<path d="M71.8115 89.5558V45.666" stroke="#244E80" stroke-width="0.343641" stroke-miterlimit="10" stroke-dasharray="0.95 0.95"/>
<path d="M71.8115 45.1614V44.6465H72.3264" stroke="#244E80" stroke-width="0.343641" stroke-miterlimit="10"/>
<path d="M73.335 44.6465H117.225" stroke="#244E80" stroke-width="0.343641" stroke-miterlimit="10" stroke-dasharray="0.95 0.95"/>
<path d="M60.8469 104.591C61.3175 97.6234 61.5662 93.9397 61.9344 88.4904C62.4997 80.1184 62.8229 70.9012 57.6687 64.2797C57.3543 63.876 56.985 63.4628 56.4854 63.3538C55.46 63.1298 54.6764 64.2521 54.3151 65.2376C53.5555 67.3094 53.2803 69.7396 54.4023 71.6397C55.3481 73.2417 57.1161 74.1789 58.8876 74.7475C63.0596 76.0866 67.7396 75.7663 71.6901 73.871" stroke="#244E80" stroke-width="0.343641" stroke-miterlimit="10" stroke-linejoin="round"/>
<path d="M82.5241 21.7458H52.0479" stroke="#244E80" stroke-width="0.343641" stroke-miterlimit="10" stroke-linecap="round" stroke-linejoin="round"/>
<path d="M83.2868 22.5072C82.8663 22.5072 82.5254 22.1663 82.5254 21.7458C82.5254 21.3253 82.8663 20.9844 83.2868 20.9844C83.7073 20.9844 84.0482 21.3253 84.0482 21.7458C84.0482 22.1663 83.7073 22.5072 83.2868 22.5072Z" fill="white" stroke="#244E80" stroke-width="0.343641" stroke-miterlimit="10" stroke-linecap="round" stroke-linejoin="round"/>
<path d="M51.2858 22.5072C50.8654 22.5072 50.5244 22.1663 50.5244 21.7458C50.5244 21.3253 50.8654 20.9844 51.2858 20.9844C51.7063 20.9844 52.0472 21.3253 52.0472 21.7458C52.0472 22.1663 51.7063 22.5072 51.2858 22.5072Z" fill="white" stroke="#244E80" stroke-width="0.343641" stroke-miterlimit="10" stroke-linecap="round" stroke-linejoin="round"/>
<path d="M43.7734 31.334C43.7734 31.334 50.8114 22.3241 65.803 21.7449C65.803 21.7449 80.1166 21.0184 89.893 31.0958" stroke="#244E80" stroke-width="0.343641" stroke-miterlimit="10" stroke-linecap="round" stroke-linejoin="round"/>
<path d="M43.0674 122.032L43.5016 123.041C43.5016 123.041 47.2187 123.251 50.7008 120.102L49.2273 119.994L43.0674 122.032Z" fill="#171C27"/>
<path d="M26.8116 92.6963C26.8116 92.6963 24.6007 108.45 19.2617 119.843C19.2617 119.843 22.3651 121.683 25.3737 121.508C25.3737 121.508 31.1869 108.976 33.2904 93.4642L26.8116 92.6963Z" fill="#062538"/>
<path d="M23.8323 87.1609C23.8323 87.1609 23.6565 92.3506 25.9154 93.7852C28.1742 95.2198 40.326 113.304 43.111 121.983C43.111 121.983 46.7398 122.224 49.2713 119.946C49.2713 119.946 41.5075 102.155 35.0941 92.6963C35.0941 92.6963 36.6569 89.6434 36.4754 86.6609L23.8323 87.1609Z" fill="#0A3759"/>
<path d="M19.2626 119.842L18.7764 120.661C18.7764 120.661 22.0468 122.811 26.1345 122.478L25.3749 121.507C25.3749 121.507 20.5664 120.385 19.2626 119.842Z" fill="#171C27"/>
<path d="M35.6542 73.1498L36.4755 86.6599C36.4755 86.6599 33.6851 88.7223 29.3559 88.8182C25.0266 88.9137 23.8324 87.1607 23.8324 87.1607C23.8324 87.1607 22.7489 73.9432 22.855 73.7961C22.961 73.6491 22.8669 69.2694 29.1536 69.2948C35.4399 69.3191 35.6542 73.1498 35.6542 73.1498Z" fill="#2481D3"/>
<path d="M35.6 72.8237C31.6651 73.1066 25.7745 73.6055 24.7197 74.1185C24.7197 74.1185 29.8619 77.9133 35.9264 77.6159L35.6548 73.1498C35.6548 73.1498 35.6472 73.0256 35.6 72.8237Z" fill="#1364A0"/>
<path d="M27.21 65.7385L27.7245 69.4472L29.6493 70.7663L31.1685 69.5245L30.8591 67.294L27.21 65.7385Z" fill="#EEB399"/>
<path d="M27.9307 67.5444L30.9698 68.104L31.1346 69.2913C29.4829 69.2997 27.9307 67.5444 27.9307 67.5444Z" fill="#CC957F"/>
<path d="M30.2966 68.7569L31.3553 68.6099C32.7954 68.4102 33.8103 67.0685 33.6105 65.6281L33.0884 61.8635C32.8887 60.4235 31.5471 59.4086 30.1067 59.6083L29.0479 59.7554C27.6078 59.9551 26.593 61.2967 26.7927 62.7368L27.3148 66.5014C27.5149 67.9418 28.8565 68.9567 30.2966 68.7569Z" fill="#EEB399"/>
<path d="M27.7602 62.3893C28.0957 62.5139 28.5028 62.4866 28.7744 62.2543C29.0463 62.0219 29.1237 61.5665 28.8895 61.2957C29.1934 61.4031 29.5242 61.4794 29.8368 61.4006C30.1494 61.3218 30.4319 61.0466 30.4236 60.7245C30.5997 60.8443 30.7841 60.9674 30.9951 60.9961C31.206 61.0248 31.4504 60.9264 31.5165 60.7242C31.7492 60.9032 32.0408 61.0045 32.3342 61.0085C32.5048 61.0106 32.6835 60.9772 32.8157 60.869C32.9435 60.7641 33.0117 60.6022 33.044 60.4399C33.1424 59.9453 32.9224 59.4021 32.5077 59.116C32.4035 59.0437 32.2837 58.986 32.1566 58.9846C32.0299 58.9831 31.8963 59.0499 31.8487 59.1672C31.5866 58.7391 31.1371 58.4138 30.6374 58.3662C30.1378 58.3183 29.6055 58.5808 29.3946 59.0361C29.2932 58.8546 29.0805 58.7558 28.8724 58.7449C28.6647 58.7344 28.4603 58.7994 28.2686 58.8796C28.0148 58.9853 27.7675 59.1225 27.5827 59.3262C27.3982 59.5303 27.2828 59.8095 27.3249 60.0815C27.1168 60.0052 26.891 60.1265 26.716 60.2623C26.4618 60.4598 26.2316 60.7143 26.1583 61.0277C26.0849 61.3411 26.2131 61.7172 26.5083 61.8454C26.2233 62.0451 26.0519 62.3973 26.0708 62.7452C26.0896 63.093 26.2981 63.4245 26.6031 63.5923C26.1924 63.8148 26.0983 64.4564 26.428 64.7876C26.2276 64.8758 26.1347 65.1314 26.192 65.3428C26.2494 65.5541 26.4291 65.7171 26.6317 65.8003C26.8267 65.8805 27.0627 65.8929 27.2403 65.7788C27.4175 65.6652 27.4948 65.4201 27.3881 65.2342C27.4055 65.2647 27.7726 64.8352 27.7911 64.768C27.8448 64.5712 27.8231 64.3054 27.8401 64.0973C27.8877 63.5273 27.8608 62.9518 27.7602 62.3893Z" fill="#171C27"/>
<path d="M26.4147 65.4138C26.4739 65.8401 26.8671 66.1374 27.2934 66.0783C27.7197 66.0191 28.0171 65.6258 27.9579 65.1996C27.8987 64.7733 27.5055 64.4759 27.0792 64.5351C26.6529 64.5943 26.3555 64.9875 26.4147 65.4138Z" fill="#EEB399"/>
<path d="M28.3176 65.8283C28.4984 66.053 28.713 66.2476 28.9276 66.4404C29.1516 66.642 29.3894 66.8497 29.6828 66.9183C30.0942 67.0149 30.5194 66.8155 30.856 66.5599C31.1926 66.3043 31.4856 65.9866 31.8578 65.7858C32.3523 65.5193 32.9492 65.4866 33.4982 65.606C33.638 65.6365 33.7818 65.6798 33.8842 65.7796C33.9993 65.8922 34.0433 66.057 34.0763 66.2146C34.1761 66.6914 34.2212 67.1794 34.2103 67.6659C34.203 67.9872 34.1692 68.3177 34.0207 68.6027C33.8236 68.981 33.4398 69.2385 33.0302 69.3587C32.6206 69.4789 32.1849 69.4752 31.7601 69.4346C30.5964 69.3238 29.4014 68.9019 28.6647 67.9941C28.3796 67.643 28.1749 67.2342 27.9868 66.8224C27.7123 66.2211 27.4679 65.606 27.2559 64.9801C27.1669 64.7179 27.0623 64.3726 27.2087 64.1105C27.3662 63.828 27.5964 63.8512 27.6967 64.1388C27.7947 64.4202 27.7729 64.7412 27.8757 65.0305C27.9773 65.3196 28.1262 65.5904 28.3176 65.8283Z" fill="#171C27"/>
<path d="M44.3087 66.6851C36.4346 73.9158 27.5942 70.482 27.2003 70.3237C26.0634 69.8603 24.7653 70.3999 24.2958 71.5346C23.8253 72.6722 24.3659 73.9757 25.5039 74.4466C25.7432 74.5454 28.7071 75.7331 32.8679 75.7331C37.0057 75.7331 42.3269 74.5577 47.3239 69.9689C46.6732 67.7932 44.3087 66.6851 44.3087 66.6851Z" fill="#EEB399"/>
<path d="M31.311 71.0963C28.9327 70.8635 27.3413 70.2463 27.175 70.1795C25.9742 69.69 24.6032 70.2601 24.1072 71.4586C23.6101 72.6605 24.1812 74.0374 25.3831 74.5344C25.5864 74.6183 27.6546 75.4458 30.7439 75.7664C31.4189 74.1438 31.3593 71.8976 31.311 71.0963Z" fill="#2481D3"/>
<path d="M31.2214 71.0883C31.2214 71.0883 29.0599 70.9067 27.1758 70.1802" stroke="#1364A0" stroke-width="0.0974223" stroke-miterlimit="10" stroke-linecap="round" stroke-linejoin="round"/>
<path d="M46.0769 65.1188C46.2283 65.0062 46.3917 64.8936 46.5794 64.8733C46.7671 64.853 46.9821 64.9601 47.0159 65.1456C47.0674 65.4307 46.7058 65.6104 46.6034 65.8816C46.5268 66.085 46.6103 66.3177 46.745 66.4884C46.8797 66.6587 47.0609 66.7857 47.2185 66.935C47.9744 67.6525 48.0906 68.9447 47.4748 69.7853C47.3586 69.9436 47.2065 70.0939 47.013 70.1262C46.7682 70.1665 46.5391 70.0101 46.3405 69.8615C45.8075 69.4625 45.269 69.0587 44.8394 68.55C44.4524 68.0918 43.8722 67.273 44.2955 66.716C44.7567 66.1093 45.4694 65.5697 46.0769 65.1188Z" fill="#EEB399"/>
<path d="M103.217 25.6102L100.444 27.4961L104.756 28.6395V32.2843L106.861 29.7175L111.636 30.9314L116.359 20.4763L103.217 25.6102Z" fill="#A7A9AC"/>
<path d="M116.64 18.4568L100.251 25.7743L105.031 27.8109L116.64 18.4568Z" fill="white"/>
<path d="M102.774 33.2782C101.897 34.0617 100.841 34.6456 99.7069 34.9597C98.5079 35.2919 97.1641 35.3108 96.0785 34.7026C94.9932 34.0944 94.2753 32.7491 94.6537 31.564C95.032 30.3788 96.6852 29.7242 97.6409 30.5204C98.4008 31.1537 98.4342 32.373 97.9557 33.239C97.4775 34.1049 96.6144 34.6841 95.748 35.1619C93.2703 36.5286 90.4432 37.3478 87.6179 37.1855C85.135 37.0428 82.6631 36.0947 80.8545 34.4052" stroke="#244E80" stroke-width="0.292232" stroke-linecap="round" stroke-linejoin="round" stroke-dasharray="0.97 0.97"/>
<path d="M80.4901 34.0457C80.3717 33.9219 80.2566 33.7948 80.1455 33.6641" stroke="#244E80" stroke-width="0.292232" stroke-linecap="round" stroke-linejoin="round"/>
<path d="M48.5599 52.9084C48.5599 49.7033 45.9616 47.105 42.7565 47.105C39.5515 47.105 36.9531 49.7033 36.9531 52.9084C36.9531 55.3898 38.5137 57.5016 40.7047 58.3316L39.9429 60.3824L42.9079 58.7041C46.0426 58.6232 48.5599 56.0622 48.5599 52.9084Z" fill="white"/>
<path d="M43.8008 51.3552L40.9414 52.7884L42.636 53.0324L43.2899 54.4183L43.8008 51.3552Z" fill="#244E80"/>
<path d="M45.3343 55.3282H40.1758V50.1697H45.3343V55.3282ZM40.321 55.183H45.1894V50.3146H40.321V55.183Z" fill="#244E80"/>
<path d="M45.2618 50.5782C45.4479 50.5782 45.5987 50.4273 45.5987 50.2412C45.5987 50.0552 45.4479 49.9043 45.2618 49.9043C45.0757 49.9043 44.9248 50.0552 44.9248 50.2412C44.9248 50.4273 45.0757 50.5782 45.2618 50.5782Z" fill="#244E80"/>
<path d="M40.2491 50.5782C40.4352 50.5782 40.586 50.4273 40.586 50.2412C40.586 50.0552 40.4352 49.9043 40.2491 49.9043C40.063 49.9043 39.9121 50.0552 39.9121 50.2412C39.9121 50.4273 40.063 50.5782 40.2491 50.5782Z" fill="#244E80"/>
<path d="M40.2491 55.5921C40.4352 55.5921 40.586 55.4413 40.586 55.2552C40.586 55.0691 40.4352 54.9182 40.2491 54.9182C40.063 54.9182 39.9121 55.0691 39.9121 55.2552C39.9121 55.4413 40.063 55.5921 40.2491 55.5921Z" fill="#244E80"/>
<path d="M45.2618 55.5921C45.4479 55.5921 45.5987 55.4413 45.5987 55.2552C45.5987 55.0691 45.4479 54.9182 45.2618 54.9182C45.0757 54.9182 44.9248 55.0691 44.9248 55.2552C44.9248 55.4413 45.0757 55.5921 45.2618 55.5921Z" fill="#244E80"/>
<path d="M59.23 123.987C59.23 123.987 55.5376 124.011 55.6767 120.598C55.6767 120.598 55.546 117.348 59.4939 117.509C59.4939 117.509 60.1871 122.151 59.23 123.987Z" fill="#FF5252"/>
<path d="M63.2776 117.663L59.4937 117.509C59.4937 117.509 57.1586 120.645 59.2298 123.987L63.1022 124.145L63.2776 117.663Z" fill="#674A6C"/>
<path d="M115.652 119.795L63.2786 117.662C63.2786 117.662 60.7191 121.023 63.0146 124.14L115.388 126.273L121.709 123.286L115.652 119.795Z" fill="#FBB040"/>
<path d="M62.4627 119.204L116.437 121.402L116.342 123.725L62.064 121.514C62.0233 120.647 62.2179 119.848 62.4627 119.204Z" fill="#EFA33F"/>
<path d="M63.0147 124.142C62.364 123.258 62.104 122.355 62.0645 121.514L116.343 123.725C117.608 122.962 119.71 123.218 121.175 123.54L115.388 126.275L63.0147 124.142Z" fill="#DB9037"/>
<path d="M59.9401 117.729C59.9401 117.729 58.0505 120.427 59.6293 123.77C59.6293 123.77 58.3559 120.68 59.9401 117.729Z" fill="#36253A"/>
<path d="M60.6862 117.76C60.6862 117.76 58.7966 120.458 60.3753 123.801C60.3753 123.801 59.1016 120.711 60.6862 117.76Z" fill="#36253A"/>
<path d="M61.4293 117.79C61.4293 117.79 59.5398 120.488 61.1185 123.831C61.1185 123.831 59.8448 120.741 61.4293 117.79Z" fill="#36253A"/>
<path d="M62.1754 117.819C62.1754 117.819 60.2859 120.518 61.8646 123.86C61.8646 123.86 60.5912 120.771 62.1754 117.819Z" fill="#36253A"/>
<path d="M102.43 122.34L104.236 119.331L78.7778 118.294L78 124.752L100.053 125.65C101.29 123.875 102.43 122.34 102.43 122.34Z" fill="#D1D3D4"/>
<path d="M83.9414 132.38V133.482C83.9414 133.482 79.5523 134.336 75.5811 133.482L77.39 132.38H83.9414Z" fill="#171C27"/>
<path d="M99.4834 114.869L99.669 125.127L111.799 125.802C111.799 125.802 112.592 129.612 111.799 131.305H99.669C99.669 131.305 93.4418 132.42 93.0973 126.444C92.7531 120.467 92.7236 116.495 92.7236 116.495C92.7236 116.495 96.9555 114.358 99.4834 114.869Z" fill="#A05E47"/>
<path d="M99.6668 125.03L99.5517 118.672L92.7773 119.102C92.8191 120.577 92.8924 122.617 93.021 125.062C94.4534 125.356 96.9203 125.644 99.6668 125.03Z" fill="#82493A"/>
<path d="M99.6763 113.36C99.6763 113.36 101.095 117.903 98.4512 118.866C95.8075 119.828 83.3917 118.866 83.3917 118.866L83.9415 132.381C83.9415 132.381 80.4136 133.481 77.3897 132.381L76.9772 116.483C76.9772 116.483 76.0001 111.933 84.8576 112.678L99.6763 113.36Z" fill="#A05E47"/>
<path d="M80.944 113.139C80.944 113.139 80.5424 117.628 83.514 121.888L83.3909 118.865C83.3909 118.865 85.9965 119.066 89.0737 119.192C89.0036 118.224 88.9067 117.533 88.9067 117.533L80.944 113.139Z" fill="#82493A"/>
<path d="M80.9631 112.679C80.9631 112.679 80.1294 121.476 89.884 122.48C98.9317 123.411 98.7255 123.953 101.951 123.272C102.37 123.184 102.607 122.733 102.433 122.34C101.727 120.74 100.134 116.85 99.6768 113.36L88.3013 112.679C88.3013 112.679 84.207 112.441 80.9631 112.679Z" fill="#0D314C"/>
<path d="M80.8829 87.4304C80.7816 87.291 80.6705 87.1483 80.5126 87.0796C80.3546 87.0106 80.1382 87.0451 80.0583 87.1976C79.9356 87.4315 80.2014 87.6871 80.2163 87.9507C80.2275 88.1486 80.091 88.3287 79.9273 88.4402C79.7635 88.5516 79.5714 88.6126 79.3931 88.6998C78.5391 89.1177 78.0853 90.2106 78.3917 91.1107C78.4495 91.2803 78.5409 91.4528 78.7007 91.5334C78.9026 91.6354 79.1448 91.5617 79.3583 91.4866C79.9312 91.2847 80.51 91.0806 81.0231 90.7549C81.4853 90.4615 82.2137 89.9074 81.9973 89.3072C81.7616 88.6533 81.2881 87.9888 80.8829 87.4304Z" fill="#A05E47"/>
<path d="M98.3048 109.813C98.3397 109.813 98.3742 109.812 98.4091 109.81C100.164 109.724 101.492 109.171 102.354 108.163C103.13 107.258 103.325 106.173 103.25 105.459C103.242 105.384 103.23 105.31 103.214 105.236C102.437 101.636 99.5223 97.0058 99.3981 96.8108C98.7787 95.8311 97.4813 95.5389 96.5006 96.1601C95.521 96.7803 95.229 98.078 95.8488 99.058C96.5199 100.12 98.2674 103.171 98.9497 105.505C98.7896 105.551 98.5463 105.597 98.2046 105.614C97.046 105.671 96.1524 106.656 96.2087 107.815C96.2635 108.939 97.192 109.813 98.3048 109.813Z" fill="#E54C64"/>
<path d="M98.2055 105.614C97.0469 105.671 96.1533 106.656 96.2096 107.815C96.2644 108.938 97.1928 109.813 98.3057 109.813C98.3406 109.813 98.3751 109.812 98.4099 109.811C99.741 109.746 100.825 109.41 101.648 108.813C99.7447 105.771 99.2705 99.8718 99.2705 99.8718L96.8294 100.737C97.5908 102.124 98.5011 103.969 98.9502 105.505C98.7905 105.552 98.5472 105.598 98.2055 105.614Z" fill="#CC3754"/>
<path d="M85.4689 95.6314L91.7393 95.4397C92.8961 95.3906 93.8678 96.3155 93.903 97.4752C93.9382 98.6346 93.0268 99.6033 91.8674 99.6389L84.3012 99.8702C84.2794 99.8709 84.2584 99.8713 84.2366 99.8713C83.4672 99.8713 82.757 99.4497 82.3891 98.7693L78.3584 91.3109C79.5617 90.528 82.054 89.3135 82.054 89.3135L85.4689 95.6314Z" fill="#E54C64"/>
<path d="M96.6701 91.6968L96.4784 95.3663L94.7075 96.8179L93.1172 95.7312L93.2323 93.5243L96.6701 91.6968Z" fill="#A05E47"/>
<path d="M93.8528 94.9034L92.907 94.854C91.4538 94.7781 90.3271 93.5276 90.403 92.0745L90.5922 88.4511C90.6681 86.9984 91.9186 85.8717 93.3717 85.9472L94.3176 85.9966C95.7707 86.0725 96.8974 87.323 96.8215 88.7761L96.6323 92.3994C96.5565 93.8522 95.3056 94.9792 93.8528 94.9034Z" fill="#A05E47"/>
<path d="M91.6771 87.6104C91.3311 87.6373 91.2156 88.1565 91.4433 88.4187C91.6709 88.6808 92.0671 88.7164 92.4091 88.6579C92.3125 88.8453 92.213 89.0599 92.2813 89.2592C92.3496 89.4589 92.6811 89.5424 92.762 89.3478C92.697 89.7774 92.6324 90.2073 92.5674 90.6368C92.5373 90.8376 92.5079 91.0497 92.5834 91.2381C92.6589 91.4266 92.8793 91.5732 93.0663 91.4937C93.4904 91.3144 93.0852 90.484 93.4922 90.2683C93.5641 90.2301 93.6484 90.2233 93.7297 90.2287C94.1774 90.2592 94.5528 90.7054 94.5056 91.1521C94.4584 91.5983 93.9984 91.9567 93.5539 91.8931C93.4142 92.0326 93.3956 92.2766 93.5126 92.4356C93.6295 92.5946 93.8677 92.6498 94.0427 92.558C93.9221 92.9047 94.1091 93.3288 94.4464 93.4733C94.7838 93.6178 95.2202 93.461 95.388 93.1349C95.7031 93.5038 96.2205 93.6876 96.698 93.6004C97.1755 93.5133 97.5945 93.1585 97.7593 92.7025C98.345 92.786 98.9765 92.6814 99.4427 92.3172C99.9089 91.9534 100.169 91.3038 99.9826 90.7425C100.531 90.5145 100.95 89.9978 101.059 89.4135C101.168 88.8293 100.964 88.1961 100.534 87.7858C101.421 86.6003 101.174 84.7227 100.009 83.8077C99.9347 82.7609 99.3127 81.6861 98.3058 81.3902C97.8741 81.2631 97.3131 81.3437 97.1221 81.7507C96.641 81.4326 96.0978 81.1571 95.5216 81.1701C94.9453 81.1832 94.3437 81.571 94.2638 82.1421C93.8764 81.8103 93.2805 81.7478 92.8325 81.9918C92.3844 82.2358 92.1139 82.7703 92.1822 83.2757C91.7396 83.1029 91.2004 83.2126 90.8609 83.5448C90.521 83.877 90.399 84.4133 90.5617 84.8596C90.5624 84.8617 90.1626 85.6166 90.1612 85.7964C90.1586 86.1351 90.31 86.4383 90.3874 86.76C90.5156 87.2931 90.9531 88.3918 91.6771 87.6104Z" fill="#171C27"/>
<path d="M96.3703 95.1884C96.3703 95.1884 99.9319 95.1884 99.6614 99.0194C99.3909 102.85 98.8949 105.128 99.3459 107.613C99.7968 110.098 99.6763 113.36 99.6763 113.36C99.6763 113.36 92.313 115.771 88.3008 113.131C88.3008 113.131 88.8868 100.676 89.0223 98.7606C89.1573 96.8452 90.9579 95.1692 93.801 95.1884C96.644 95.2076 96.644 95.2076 96.644 95.2076" fill="#E54C64"/>
<path d="M93.5632 113.206C97.131 113.206 99.6869 111.927 99.7232 111.908C99.7577 111.891 99.7711 111.848 99.7537 111.814C99.7359 111.78 99.6927 111.766 99.6596 111.784C99.6077 111.81 94.4012 114.412 88.4751 112.128C88.4388 112.114 88.3985 112.132 88.3847 112.167C88.3705 112.204 88.3887 112.244 88.425 112.258C90.247 112.961 92.0022 113.206 93.5632 113.206Z" fill="#0D314C"/>
<path d="M99.6209 110.104C99.6219 110.104 99.6227 110.104 99.6241 110.104C99.6626 110.103 99.6927 110.07 99.6909 110.031C99.6361 108.793 99.4164 107.613 99.4143 107.601C99.0918 105.825 99.2527 104.19 99.4753 101.928C99.5595 101.072 99.655 100.103 99.7312 99.0248C99.7338 98.9863 99.7047 98.9529 99.6662 98.95C99.635 98.9486 99.5944 98.9762 99.5914 99.015C99.5156 100.091 99.4201 101.059 99.3362 101.914C99.1209 104.102 98.9506 105.83 99.2766 107.626C99.2792 107.638 99.497 108.809 99.5511 110.037C99.5522 110.075 99.5831 110.104 99.6209 110.104Z" fill="#0D314C"/>
<path d="M99.3406 113.423C99.3791 113.423 99.4107 113.392 99.4107 113.353V112.375C99.4107 112.337 99.3794 112.305 99.3406 112.305C99.3021 112.305 99.2705 112.336 99.2705 112.375V113.353C99.2705 113.392 99.3021 113.423 99.3406 113.423Z" fill="#0D314C"/>
<path d="M98.8777 113.369C98.9162 113.369 98.9478 113.337 98.9478 113.299V112.606C98.9478 112.568 98.9165 112.536 98.8777 112.536C98.8392 112.536 98.8076 112.567 98.8076 112.606V113.299C98.8076 113.337 98.8388 113.369 98.8777 113.369Z" fill="#0D314C"/>
<path d="M98.3816 113.617C98.4201 113.617 98.4517 113.586 98.4517 113.547V112.748C98.4517 112.709 98.4205 112.678 98.3816 112.678C98.3431 112.678 98.3115 112.709 98.3115 112.748V113.547C98.3115 113.586 98.3431 113.617 98.3816 113.617Z" fill="#0D314C"/>
<path d="M97.7947 113.723C97.8332 113.723 97.8648 113.692 97.8648 113.653V113.013C97.8648 112.975 97.8335 112.943 97.7947 112.943C97.7562 112.943 97.7246 112.975 97.7246 113.013V113.653C97.7246 113.692 97.7562 113.723 97.7947 113.723Z" fill="#0D314C"/>
<path d="M97.2644 113.849C97.3029 113.849 97.3345 113.818 97.3345 113.779V113.067C97.3345 113.029 97.3033 112.997 97.2644 112.997C97.2259 112.997 97.1943 113.028 97.1943 113.067V113.779C97.1947 113.818 97.2259 113.849 97.2644 113.849Z" fill="#0D314C"/>
<path d="M96.7478 113.977C96.7863 113.977 96.8179 113.946 96.8179 113.907V113.192C96.8179 113.154 96.7867 113.122 96.7478 113.122C96.7093 113.122 96.6777 113.153 96.6777 113.192V113.907C96.6781 113.946 96.7093 113.977 96.7478 113.977Z" fill="#0D314C"/>
<path d="M96.1462 113.973C96.1847 113.973 96.2163 113.942 96.2163 113.903V113.226C96.2163 113.188 96.1851 113.156 96.1462 113.156C96.1078 113.156 96.0762 113.187 96.0762 113.226V113.903C96.0762 113.942 96.1078 113.973 96.1462 113.973Z" fill="#0D314C"/>
<path d="M95.6296 114.007C95.6681 114.007 95.6997 113.976 95.6997 113.937V113.351C95.6997 113.313 95.6685 113.281 95.6296 113.281C95.5912 113.281 95.5596 113.312 95.5596 113.351V113.937C95.5596 113.976 95.5912 114.007 95.6296 114.007Z" fill="#0D314C"/>
<path d="M95.1707 114.189C95.2091 114.189 95.2407 114.158 95.2407 114.119V113.422C95.2407 113.383 95.2095 113.352 95.1707 113.352C95.1322 113.352 95.1006 113.383 95.1006 113.422V114.119C95.1006 114.158 95.1322 114.189 95.1707 114.189Z" fill="#0D314C"/>
<path d="M94.5496 114.061C94.5881 114.061 94.6197 114.03 94.6197 113.991V113.547C94.6197 113.508 94.5884 113.477 94.5496 113.477C94.5111 113.477 94.4795 113.508 94.4795 113.547V113.991C94.4795 114.03 94.5111 114.061 94.5496 114.061Z" fill="#0D314C"/>
<path d="M94.1238 114.203C94.1623 114.203 94.1939 114.172 94.1939 114.133V113.582C94.1939 113.544 94.1626 113.512 94.1238 113.512C94.0853 113.512 94.0537 113.543 94.0537 113.582V114.133C94.0537 114.172 94.0849 114.203 94.1238 114.203Z" fill="#0D314C"/>
<path d="M93.7156 114.26C93.7541 114.26 93.7857 114.229 93.7857 114.19V113.494C93.7857 113.456 93.7541 113.424 93.7156 113.424C93.6771 113.424 93.6455 113.456 93.6455 113.494V114.19C93.6459 114.228 93.6771 114.26 93.7156 114.26Z" fill="#0D314C"/>
<path d="M93.2703 114.281C93.3088 114.281 93.3404 114.249 93.3404 114.211V113.493C93.3404 113.454 93.3091 113.423 93.2703 113.423C93.2318 113.423 93.2002 113.454 93.2002 113.493V114.211C93.2002 114.249 93.2314 114.281 93.2703 114.281Z" fill="#0D314C"/>
<path d="M92.7908 114.133C92.8293 114.133 92.8609 114.102 92.8609 114.063V113.493C92.8609 113.454 92.8296 113.423 92.7908 113.423C92.7523 113.423 92.7207 113.454 92.7207 113.493V114.063C92.7211 114.102 92.7523 114.133 92.7908 114.133Z" fill="#0D314C"/>
<path d="M92.3308 114.06C92.3693 114.06 92.4009 114.029 92.4009 113.99V113.493C92.4009 113.454 92.3697 113.423 92.3308 113.423C92.2923 113.423 92.2607 113.454 92.2607 113.493V113.99C92.2611 114.029 92.2923 114.06 92.3308 114.06Z" fill="#0D314C"/>
<path d="M91.7806 114.19C91.8195 114.19 91.8507 114.159 91.8507 114.12V113.44C91.8507 113.402 91.8195 113.37 91.7806 113.37C91.7422 113.37 91.7109 113.401 91.7109 113.44V114.12C91.7109 114.159 91.7422 114.19 91.7806 114.19Z" fill="#0D314C"/>
<path d="M91.2673 114.07C91.3058 114.07 91.3374 114.039 91.3374 114V113.262C91.3374 113.223 91.3062 113.192 91.2673 113.192C91.2289 113.192 91.1973 113.223 91.1973 113.262V114C91.1973 114.039 91.2285 114.07 91.2673 114.07Z" fill="#0D314C"/>
<path d="M90.8757 113.951C90.9142 113.951 90.9458 113.92 90.9458 113.881V113.209C90.9458 113.171 90.9146 113.139 90.8757 113.139C90.8373 113.139 90.8057 113.17 90.8057 113.209V113.881C90.8057 113.92 90.8369 113.951 90.8757 113.951Z" fill="#0D314C"/>
<path d="M90.3796 113.885C90.4181 113.885 90.4497 113.854 90.4497 113.815V113.086C90.4497 113.047 90.4185 113.016 90.3796 113.016C90.3412 113.016 90.3096 113.047 90.3096 113.086V113.815C90.3099 113.854 90.3412 113.885 90.3796 113.885Z" fill="#0D314C"/>
<path d="M89.9539 113.779C89.9924 113.779 90.0239 113.747 90.0239 113.709V112.997C90.0239 112.958 89.9927 112.927 89.9539 112.927C89.9154 112.927 89.8838 112.958 89.8838 112.997V113.709C89.8842 113.747 89.9154 113.779 89.9539 113.779Z" fill="#0D314C"/>
<path d="M89.4578 113.652C89.4963 113.652 89.5279 113.621 89.5279 113.582V112.942C89.5279 112.904 89.4966 112.872 89.4578 112.872C89.4193 112.872 89.3877 112.904 89.3877 112.942V113.582C89.3877 113.621 89.4193 113.652 89.4578 113.652Z" fill="#0D314C"/>
<path d="M88.9783 113.386C89.0168 113.386 89.0484 113.355 89.0484 113.316V112.659C89.0484 112.62 89.0171 112.589 88.9783 112.589C88.9394 112.589 88.9082 112.62 88.9082 112.659V113.316C88.9082 113.355 88.9394 113.386 88.9783 113.386Z" fill="#0D314C"/>
<path d="M88.6238 113.263C88.6623 113.263 88.6939 113.232 88.6939 113.193V112.5C88.6939 112.462 88.6626 112.43 88.6238 112.43C88.5853 112.43 88.5537 112.462 88.5537 112.5V113.193C88.5541 113.232 88.5853 113.263 88.6238 113.263Z" fill="#0D314C"/>
<path d="M99.0317 117.648C98.4206 118.199 97.6229 118.485 96.8462 118.756C94.8819 119.441 92.8874 120.116 90.8145 120.291" stroke="#074368" stroke-width="0.0974223" stroke-miterlimit="10" stroke-linecap="round" stroke-linejoin="round"/>
</svg>
